# xmcd CD database file
#
# Track frame offsets:
#	150
#	15920
#	35657
#	50642
#	64555
#	77355
#	90012
#	107932
#	123037
#	152162
#	193525
#	236002
#	266265
#
# Disc length: 3931 seconds
#
# Revision: 0
# Processed by: cddbd v1.4PL0 Copyright (c) Steve Scherf et al.
# Submitted via: CDex 1.50
#
DISCID=910f590d
DTITLE=Various Artist - Caribe Latino 2 (Disc1)
DYEAR=1998
DGENRE=Salsa
TTITLE0=El Camaleón                            
TTITLE1=Corazón Salvage                        
TTITLE2=El Rompecintura                        
TTITLE3=La Candelosa                           
TTITLE4=El Ombliguito                          
TTITLE5=Buena Pa'goza                          
TTITLE6=La Tanga                               
TTITLE7=El Venao                               
TTITLE8=Las Mujeres Lo Bailan Bien             
TTITLE9=Merengue Con Letra                     
TTITLE10=El Baile Del Perrito                   
TTITLE11=El Taqui Taqui                         
TTITLE12=Tumba La Casa                          
EXTD=YEAR: 1998
EXTT0=
EXTT1=
EXTT2=
EXTT3=
EXTT4=
EXTT5=
EXTT6=
EXTT7=
EXTT8=
EXTT9=
EXTT10=
EXTT11=
EXTT12=
PLAYORDER=
